<?xml version="1.0" encoding="utf-8"?>
<!-- Generator: Adobe Illustrator 19.2.1, SVG Export Plug-In . SVG Version: 6.00 Build 0)  -->
<svg version="1.1" xmlns="http://www.w3.org/2000/svg" xmlns:xlink="http://www.w3.org/1999/xlink" x="0px" y="0px"
	 viewBox="0 0 252.5 162.5" style="enable-background:new 0 0 252.5 162.5;" xml:space="preserve">
<style type="text/css">
	.st0{fill:#2A657E;}
	.st1{fill:#FFFFFF;stroke:#D1C934;stroke-miterlimit:10;}
	.st2{fill:#26BCD7;}
	.st3{fill:#D9D723;}
	.st4{fill:#FF8300;}
	.st5{fill:#163A63;}
	.st6{fill:#FFFFFF;}
	.st7{fill:#A39A34;}
	.st8{fill:#D1C934;}
	.st9{fill:#F58220;}
	.st10{fill:#DBDC21;stroke:#D1C934;stroke-miterlimit:10;}
	.st11{fill:#1BB0CA;}
	.st12{fill:#DBDC21;}
	.st13{clip-path:url(#SVGID_2_);fill:#D1C934;}
	.st14{clip-path:url(#SVGID_2_);fill:none;stroke:#DBDC21;stroke-miterlimit:10;}
	.st15{clip-path:url(#SVGID_4_);fill:#D1C934;}
	.st16{clip-path:url(#SVGID_4_);fill:#FFFFFF;}
	.st17{clip-path:url(#SVGID_4_);fill:none;stroke:#DBDC21;stroke-miterlimit:10;}
	.st18{fill:#FFFFFF;stroke:#2A657E;stroke-miterlimit:10;}
	.st19{fill:#1BB0CA;stroke:#2A657E;stroke-miterlimit:10;}
	.st20{clip-path:url(#SVGID_6_);fill:#2A657E;}
	.st21{clip-path:url(#SVGID_6_);fill:none;stroke:#1BB0CA;stroke-miterlimit:10;}
	.st22{clip-path:url(#SVGID_6_);fill:none;stroke:#DBDC21;stroke-miterlimit:10;}
	.st23{clip-path:url(#SVGID_8_);fill:#D1C934;}
	.st24{clip-path:url(#SVGID_8_);fill:#FFFFFF;}
	.st25{clip-path:url(#SVGID_8_);fill:#2A657E;}
	.st26{clip-path:url(#SVGID_8_);fill:none;stroke:#1BB0CA;stroke-miterlimit:10;}
	.st27{clip-path:url(#SVGID_8_);fill:none;stroke:#DBDC21;stroke-miterlimit:10;}
	.st28{clip-path:url(#SVGID_10_);fill:#EC4E5E;}
	.st29{fill:none;stroke:#FFFFFF;stroke-miterlimit:10;}
	.st30{fill:none;stroke:#2A657E;stroke-miterlimit:10;}
	.st31{clip-path:url(#SVGID_12_);fill:#D1C934;}
	.st32{clip-path:url(#SVGID_12_);fill:none;stroke:#DBDC21;stroke-miterlimit:10;}
	.st33{clip-path:url(#SVGID_14_);fill:#D1C934;}
	.st34{clip-path:url(#SVGID_14_);fill:#FFFFFF;}
	.st35{clip-path:url(#SVGID_14_);fill:none;stroke:#DBDC21;stroke-miterlimit:10;}
	.st36{fill:url(#);}
	.st37{clip-path:url(#SVGID_16_);fill:#2A657E;}
	.st38{clip-path:url(#SVGID_16_);fill:none;stroke:#1BB0CA;stroke-miterlimit:10;}
	.st39{clip-path:url(#SVGID_16_);fill:none;stroke:#DBDC21;stroke-miterlimit:10;}
	.st40{clip-path:url(#SVGID_18_);fill:#D1C934;}
	.st41{clip-path:url(#SVGID_18_);fill:#FFFFFF;}
	.st42{clip-path:url(#SVGID_18_);fill:#2A657E;}
	.st43{clip-path:url(#SVGID_18_);fill:none;stroke:#1BB0CA;stroke-miterlimit:10;}
	.st44{clip-path:url(#SVGID_18_);fill:none;stroke:#DBDC21;stroke-miterlimit:10;}
	.st45{opacity:0.12;fill:none;stroke:#27AAE1;stroke-miterlimit:10;}
</style>
<g id="Layer_1">
	<g>
		<ellipse transform="matrix(0.9219 -0.3875 0.3875 0.9219 -40.8115 19.978)" class="st1" cx="29.1" cy="111.2" rx="1.5" ry="1.5"/>
		<ellipse transform="matrix(0.9219 -0.3875 0.3875 0.9219 -40.7814 21.1044)" class="st1" cx="32" cy="111.7" rx="1.5" ry="1.5"/>
		
			<ellipse transform="matrix(0.9219 -0.3875 0.3875 0.9219 -40.8767 22.2192)" class="st1" cx="34.7" cy="112.5" rx="1.5" ry="1.5"/>
		
			<ellipse transform="matrix(0.9219 -0.3875 0.3875 0.9219 -41.0903 23.3578)" class="st1" cx="37.4" cy="113.6" rx="1.5" ry="1.5"/>
		<ellipse transform="matrix(0.9219 -0.3875 0.3875 0.9219 -41.4341 24.4611)" class="st1" cx="39.9" cy="115" rx="1.5" ry="1.5"/>
		
			<ellipse transform="matrix(0.9219 -0.3875 0.3875 0.9219 -41.8963 25.5267)" class="st1" cx="42.4" cy="116.7" rx="1.5" ry="1.5"/>
		<ellipse transform="matrix(0.9219 -0.3875 0.3875 0.9219 -42.4746 26.505)" class="st1" cx="44.5" cy="118.6" rx="1.5" ry="1.5"/>
		
			<ellipse transform="matrix(0.9219 -0.3875 0.3875 0.9219 -43.1192 27.4597)" class="st1" cx="46.5" cy="120.7" rx="1.5" ry="1.5"/>
		
			<ellipse transform="matrix(0.9219 -0.3875 0.3875 0.9219 -43.9224 28.3602)" class="st1" cx="48.4" cy="123.1" rx="1.5" ry="1.5"/>
		<ellipse transform="matrix(0.9219 -0.3875 0.3875 0.9219 -44.818 29.1685)" class="st1" cx="49.9" cy="125.7" rx="1.5" ry="1.5"/>
		
			<ellipse transform="matrix(0.9219 -0.3875 0.3875 0.9219 -45.7754 29.8539)" class="st1" cx="51.2" cy="128.5" rx="1.5" ry="1.5"/>
		
			<ellipse transform="matrix(0.9219 -0.3875 0.3875 0.9219 -46.8135 30.3832)" class="st1" cx="51.9" cy="131.3" rx="1.5" ry="1.5"/>
		
			<ellipse transform="matrix(0.7711 -0.6368 0.6368 0.7711 -73.3129 64.2408)" class="st1" cx="52.7" cy="134.1" rx="1.5" ry="1.5"/>
	</g>
	<g>
		
			<ellipse transform="matrix(0.3875 -0.9219 0.9219 0.3875 35.4765 275.8069)" class="st1" cx="225.3" cy="111.2" rx="1.5" ry="1.5"/>
		
			<ellipse transform="matrix(0.3875 -0.9219 0.9219 0.3875 33.3057 273.5168)" class="st1" cx="222.5" cy="111.7" rx="1.5" ry="1.5"/>
		
			<ellipse transform="matrix(0.3875 -0.9219 0.9219 0.3875 30.9096 271.4982)" class="st1" cx="219.8" cy="112.5" rx="1.5" ry="1.5"/>
		<ellipse transform="matrix(0.3875 -0.9219 0.9219 0.3875 28.232 269.6665)" class="st1" cx="217" cy="113.6" rx="1.5" ry="1.5"/>
		<ellipse transform="matrix(0.3875 -0.9219 0.9219 0.3875 25.3665 268.1626)" class="st1" cx="214.5" cy="115" rx="1.5" ry="1.5"/>
		
			<ellipse transform="matrix(0.3875 -0.9219 0.9219 0.3875 22.3412 266.9677)" class="st1" cx="212.1" cy="116.7" rx="1.5" ry="1.5"/>
		
			<ellipse transform="matrix(0.3875 -0.9219 0.9219 0.3875 19.2591 266.1757)" class="st1" cx="209.9" cy="118.6" rx="1.5" ry="1.5"/>
		
			<ellipse transform="matrix(0.3875 -0.9219 0.9219 0.3875 16.0923 265.5617)" class="st1" cx="207.9" cy="120.7" rx="1.5" ry="1.5"/>
		
			<ellipse transform="matrix(0.3875 -0.9219 0.9219 0.3875 12.7187 265.369)" class="st1" cx="206.1" cy="123.1" rx="1.5" ry="1.5"/>
		
			<ellipse transform="matrix(0.3875 -0.9219 0.9219 0.3875 9.3446 265.5419)" class="st1" cx="204.5" cy="125.7" rx="1.5" ry="1.5"/>
		
			<ellipse transform="matrix(0.3875 -0.9219 0.9219 0.3875 6.0917 266.0805)" class="st1" cx="203.3" cy="128.5" rx="1.5" ry="1.5"/>
		<ellipse transform="matrix(0.3875 -0.9219 0.9219 0.3875 2.988 267.0879)" class="st1" cx="202.5" cy="131.3" rx="1.5" ry="1.5"/>
		
			<ellipse transform="matrix(0.6368 -0.7711 0.7711 0.6368 -30.0972 204.2578)" class="st1" cx="201.7" cy="134.1" rx="1.5" ry="1.5"/>
	</g>
	<g>
		<circle class="st1" cx="29.2" cy="60.2" r="1.5"/>
		<circle class="st1" cx="32.1" cy="59.8" r="1.5"/>
		<ellipse transform="matrix(0.1781 -0.984 0.984 0.1781 -29.5403 83.2688)" class="st1" cx="35.1" cy="59.3" rx="1.5" ry="1.5"/>
		<circle class="st1" cx="37.9" cy="58.3" r="1.5"/>
		<circle class="st1" cx="40.5" cy="57" r="1.5"/>
		<circle class="st1" cx="43" cy="55.4" r="1.5"/>
		<circle class="st1" cx="45.2" cy="53.5" r="1.5"/>
		<circle class="st1" cx="47.1" cy="51.3" r="1.5"/>
		<circle class="st1" cx="48.5" cy="48.9" r="1.5"/>
	</g>
	<g>
		<circle class="st1" cx="225.6" cy="60.2" r="1.5"/>
		<circle class="st1" cx="222.6" cy="59.9" r="1.5"/>
		<circle class="st1" cx="219.7" cy="59.4" r="1.5"/>
		<circle class="st1" cx="216.9" cy="58.3" r="1.5"/>
		<circle class="st1" cx="214.3" cy="57.1" r="1.5"/>
		<circle class="st1" cx="211.8" cy="55.5" r="1.5"/>
		<circle class="st1" cx="209.6" cy="53.6" r="1.5"/>
		<ellipse transform="matrix(0.1545 -0.988 0.988 0.1545 124.5417 248.6557)" class="st1" cx="207.6" cy="51.6" rx="1.5" ry="1.5"/>
		<circle class="st1" cx="205.8" cy="49" r="1.5"/>
	</g>
	<g>
		<path class="st7" d="M69.1,117h2v0.7h-0.6l0.8,2.6c0.1,0.2,0.1,0.4,0.1,0.4h0c0,0,0-0.2,0.1-0.4l1-3.2h0.8l1,3.2
			c0.1,0.2,0.1,0.4,0.1,0.4h0c0,0,0-0.2,0.1-0.4l0.8-2.6h-0.6V117h2v0.7h-0.6l-1.1,3.8h-0.9l-0.9-3c-0.1-0.2-0.1-0.4-0.1-0.4h0
			c0,0,0,0.2-0.1,0.4l-0.9,3h-0.9l-1.1-3.8h-0.6V117z"/>
		<path class="st7" d="M76.7,117h2v0.7H78l0.8,2.6c0.1,0.2,0.1,0.4,0.1,0.4h0c0,0,0-0.2,0.1-0.4l1-3.2h0.8l1,3.2
			c0.1,0.2,0.1,0.4,0.1,0.4h0c0,0,0-0.2,0.1-0.4l0.8-2.6H82V117h2v0.7h-0.6l-1.1,3.8h-0.9l-0.9-3c-0.1-0.2-0.1-0.4-0.1-0.4h0
			c0,0,0,0.2-0.1,0.4l-0.9,3h-0.9l-1.1-3.8h-0.6V117z"/>
		<path class="st7" d="M84.2,117h2v0.7h-0.6l0.8,2.6c0.1,0.2,0.1,0.4,0.1,0.4h0c0,0,0-0.2,0.1-0.4l1-3.2h0.8l1,3.2
			c0.1,0.2,0.1,0.4,0.1,0.4h0c0,0,0-0.2,0.1-0.4l0.8-2.6h-0.6V117h2v0.7H91l-1.1,3.8h-0.9l-0.9-3c-0.1-0.2-0.1-0.4-0.1-0.4h0
			c0,0,0,0.2-0.1,0.4l-0.9,3h-0.9l-1.1-3.8h-0.6V117z"/>
		<path class="st7" d="M92.2,120.5h0.9v0.9h-0.9V120.5z"/>
		<path class="st7" d="M96.1,122.6c0.8,0,1.4-0.4,1.4-1.3V121c0-0.1,0-0.3,0-0.3h0c-0.3,0.4-0.7,0.7-1.3,0.7c-1.2,0-2-1-2-2.3
			c0-1.3,0.7-2.2,2-2.2c0.6,0,1.2,0.2,1.4,0.7h0c0,0,0-0.1,0-0.2c0-0.3,0.1-0.4,0.5-0.4H99v0.7h-0.5c-0.1,0-0.2,0.1-0.2,0.2v3.4
			c0,1.5-1.1,2-2.2,2c-0.5,0-1.1-0.1-1.5-0.4l0.3-0.7C94.8,122.3,95.4,122.6,96.1,122.6z M97.5,119.1c0-1.2-0.6-1.5-1.3-1.5
			c-0.8,0-1.2,0.6-1.2,1.5c0,0.9,0.5,1.6,1.3,1.6C96.9,120.7,97.5,120.3,97.5,119.1z"/>
		<path class="st7" d="M102,116.9c1.3,0,2.4,1,2.4,2.3c0,1.4-1.1,2.3-2.4,2.3s-2.4-1-2.4-2.3C99.6,117.9,100.7,116.9,102,116.9z
			 M102,120.8c0.8,0,1.5-0.7,1.5-1.6c0-0.9-0.7-1.6-1.5-1.6c-0.8,0-1.5,0.7-1.5,1.6C100.5,120.2,101.1,120.8,102,120.8z"/>
		<path class="st7" d="M107.5,116.9c1.3,0,2.4,1,2.4,2.3c0,1.4-1.1,2.3-2.4,2.3s-2.4-1-2.4-2.3C105.1,117.9,106.2,116.9,107.5,116.9
			z M107.5,120.8c0.8,0,1.5-0.7,1.5-1.6c0-0.9-0.7-1.6-1.5-1.6c-0.8,0-1.5,0.7-1.5,1.6C106,120.2,106.7,120.8,107.5,120.8z"/>
		<path class="st7" d="M112.6,116.9c1,0,1.4,0.7,1.4,0.7h0c0,0,0-0.1,0-0.3v-1.4h-0.7v-0.7h1.6v5.4c0,0.1,0.1,0.2,0.2,0.2h0.4v0.7
			h-0.9c-0.4,0-0.6-0.2-0.6-0.5v-0.1c0-0.1,0-0.2,0-0.2h0c0,0-0.4,0.9-1.5,0.9c-1.2,0-1.9-0.9-1.9-2.3
			C110.6,117.8,111.4,116.9,112.6,116.9z M112.7,120.8c0.7,0,1.3-0.5,1.3-1.6c0-0.8-0.4-1.6-1.3-1.6c-0.7,0-1.3,0.6-1.3,1.6
			C111.5,120.2,112,120.8,112.7,120.8z"/>
		<path class="st7" d="M116.7,122.5v-4.7c0-0.1-0.1-0.2-0.2-0.2H116V117h1c0.4,0,0.5,0.2,0.5,0.4v0c0,0.1,0,0.3,0,0.3h0
			c0,0,0.4-0.8,1.5-0.8c1.2,0,2,0.9,2,2.3c0,1.4-0.9,2.3-2,2.3c-1,0-1.4-0.8-1.4-0.8h0c0,0,0,0.2,0,0.4v1.4h0.7v0.7H116v-0.7H116.7z
			 M118.8,120.8c0.7,0,1.3-0.6,1.3-1.6c0-1-0.5-1.6-1.3-1.6c-0.7,0-1.3,0.5-1.3,1.6C117.6,120,118,120.8,118.8,120.8z"/>
		<path class="st7" d="M124.1,116.9c1.3,0,2.4,1,2.4,2.3c0,1.4-1.1,2.3-2.4,2.3s-2.4-1-2.4-2.3C121.7,117.9,122.8,116.9,124.1,116.9
			z M124.1,120.8c0.8,0,1.5-0.7,1.5-1.6c0-0.9-0.7-1.6-1.5-1.6c-0.8,0-1.5,0.7-1.5,1.6C122.6,120.2,123.3,120.8,124.1,120.8z"/>
		<path class="st7" d="M127.2,120.8h0.7v-3.1h-0.7V117h1.6v3.8h0.7v0.7h-2.2V120.8z M127.9,115.2h0.9v0.9h-0.9V115.2z"/>
		<path class="st7" d="M130.2,120.8h0.7v-2.9c0-0.1-0.1-0.2-0.2-0.2h-0.5V117h1c0.4,0,0.6,0.2,0.6,0.5v0.2c0,0.1,0,0.3,0,0.3h0
			c0.1-0.2,0.6-1.1,1.7-1.1c1,0,1.5,0.6,1.5,1.7v2.2h0.7v0.7h-1.6v-2.7c0-0.6-0.1-1.1-0.8-1.1c-0.9,0-1.5,0.8-1.5,1.7v1.4h0.7v0.7
			h-2.2V120.8z"/>
		<path class="st7" d="M136.7,117.7h-0.7V117h0.8v-1.2h0.8v1.2h1.1v0.7h-1.1v2.1c0,0.9,0.6,1,0.9,1c0.1,0,0.2,0,0.2,0v0.7
			c0,0-0.1,0-0.3,0c-0.6,0-1.7-0.2-1.7-1.7V117.7z"/>
		<path class="st7" d="M141.2,122.6c0.8,0,1.4-0.4,1.4-1.3V121c0-0.1,0-0.3,0-0.3h0c-0.3,0.4-0.7,0.7-1.3,0.7c-1.2,0-2-1-2-2.3
			c0-1.3,0.7-2.2,2-2.2c0.6,0,1.2,0.2,1.4,0.7h0c0,0,0-0.1,0-0.2c0-0.3,0.1-0.4,0.5-0.4h0.9v0.7h-0.5c-0.1,0-0.2,0.1-0.2,0.2v3.4
			c0,1.5-1.1,2-2.2,2c-0.5,0-1.1-0.1-1.5-0.4l0.3-0.7C140,122.3,140.5,122.6,141.2,122.6z M142.6,119.1c0-1.2-0.6-1.5-1.3-1.5
			c-0.8,0-1.2,0.6-1.2,1.5c0,0.9,0.5,1.6,1.3,1.6C142.1,120.7,142.6,120.3,142.6,119.1z"/>
		<path class="st7" d="M147.3,118.7h0.3v-0.2c0-0.7-0.4-0.9-0.9-0.9c-0.7,0-1.3,0.4-1.3,0.4l-0.3-0.6c0,0,0.7-0.5,1.7-0.5
			c1.1,0,1.7,0.6,1.7,1.7v2c0,0.1,0.1,0.2,0.2,0.2h0.4v0.7h-0.9c-0.4,0-0.6-0.2-0.6-0.5v-0.1c0-0.2,0-0.3,0-0.3h0
			c0,0-0.4,0.9-1.5,0.9c-0.7,0-1.5-0.4-1.5-1.3C144.7,118.8,146.6,118.7,147.3,118.7z M146.4,120.9c0.8,0,1.2-0.8,1.2-1.4v-0.2h-0.2
			c-0.4,0-1.8,0-1.8,0.9C145.6,120.5,145.9,120.9,146.4,120.9z"/>
		<path class="st7" d="M149.7,120.8h0.7v-2.9c0-0.1-0.1-0.2-0.2-0.2h-0.5V117h1c0.4,0,0.6,0.2,0.6,0.5v0.2c0,0.1,0,0.3,0,0.3h0
			c0.2-0.5,0.9-1.1,1.6-1.1c0.7,0,1.2,0.3,1.3,1h0c0.2-0.6,0.9-1,1.6-1c1,0,1.5,0.6,1.5,1.7v2.2h0.7v0.7h-1.6v-2.7
			c0-0.6-0.1-1.1-0.8-1.1c-0.8,0-1.3,0.9-1.3,1.7v1.4h0.7v0.7h-1.5v-2.7c0-0.6-0.1-1.1-0.8-1.1c-0.8,0-1.3,0.9-1.3,1.8v1.4h0.7v0.7
			h-2.2V120.8z"/>
		<path class="st7" d="M160.7,116.9c1.3,0,1.9,0.9,1.9,2.1c0,0.1,0,0.3,0,0.3h-3.3c0.1,1,0.7,1.5,1.5,1.5c0.8,0,1.3-0.5,1.3-0.5
			l0.4,0.6c0,0-0.7,0.6-1.7,0.6c-1.4,0-2.4-1-2.4-2.3C158.5,117.8,159.4,116.9,160.7,116.9z M161.7,118.8c0-0.8-0.5-1.2-1.1-1.2
			c-0.7,0-1.2,0.4-1.3,1.2H161.7z"/>
		<path class="st7" d="M163.7,120.5h0.9v0.9h-0.9V120.5z"/>
		<path class="st7" d="M167.9,116.9c0.7,0,1.7,0.2,1.7,1v0.5h-0.8v-0.3c0-0.3-0.6-0.5-1-0.5c-0.9,0-1.5,0.6-1.5,1.6
			c0,1,0.7,1.6,1.6,1.6c0.8,0,1.3-0.4,1.4-0.6l0.3,0.6c-0.2,0.2-0.8,0.7-1.8,0.7c-1.3,0-2.4-0.9-2.4-2.3
			C165.6,117.9,166.6,116.9,167.9,116.9z"/>
		<path class="st7" d="M172.8,116.9c1.3,0,2.4,1,2.4,2.3c0,1.4-1.1,2.3-2.4,2.3s-2.4-1-2.4-2.3C170.4,117.9,171.5,116.9,172.8,116.9
			z M172.8,120.8c0.8,0,1.5-0.7,1.5-1.6c0-0.9-0.7-1.6-1.5-1.6c-0.8,0-1.5,0.7-1.5,1.6C171.3,120.2,172,120.8,172.8,120.8z"/>
		<path class="st7" d="M176,120.8h0.7v-2.9c0-0.1-0.1-0.2-0.2-0.2h-0.5V117h1c0.4,0,0.6,0.2,0.6,0.5v0.2c0,0.1,0,0.3,0,0.3h0
			c0.2-0.5,0.9-1.1,1.6-1.1c0.7,0,1.2,0.3,1.3,1h0c0.2-0.6,0.9-1,1.6-1c1,0,1.5,0.6,1.5,1.7v2.2h0.7v0.7h-1.6v-2.7
			c0-0.6-0.1-1.1-0.8-1.1c-0.8,0-1.3,0.9-1.3,1.7v1.4h0.7v0.7h-1.5v-2.7c0-0.6-0.1-1.1-0.8-1.1c-0.8,0-1.3,0.9-1.3,1.8v1.4h0.7v0.7
			H176V120.8z"/>
	</g>
	<g>
		<path class="st7" d="M42.6,75.2c0.5,0,1.6,0.2,1.6,0.8l0,0.5l-0.5,0l0-0.3c0-0.4-0.6-0.5-1-0.5c-0.9,0-1.5,0.6-1.6,1.6
			c0,1,0.7,1.7,1.6,1.7c0.3,0,1-0.1,1-0.5l0-0.3l0.5,0l0,0.5c0,0.6-1,0.8-1.6,0.8c-1.2,0-2.1-1-2.1-2.2
			C40.5,76.1,41.4,75.2,42.6,75.2z"/>
		<path class="st7" d="M44.6,79l0.4,0l1.4-3.7l0.7,0l1.3,3.7l0.4,0l0,0.5l-1.4,0l0-0.5l0.4,0l-0.3-0.9l-1.5,0L45.6,79l0.4,0l0,0.5
			l-1.4,0L44.6,79z M47.2,77.6l-0.5-1.4c-0.1-0.2-0.1-0.3-0.1-0.3h0c0,0,0,0.1-0.1,0.3l-0.5,1.4L47.2,77.6z"/>
		<path class="st7" d="M49.1,79l0.5,0l0-3.2l-0.5,0l0-0.5l1.8,0c0.3,0,0.5,0,0.8,0.1c0.4,0.2,0.7,0.5,0.7,1.1c0,0.6-0.3,1-0.9,1.2v0
			c0,0,0.1,0.1,0.2,0.2l0.6,1c0.1,0.1,0.1,0.1,0.3,0.1l0.1,0l0,0.5l-0.4,0c-0.4,0-0.4-0.1-0.6-0.3L51.1,78c-0.1-0.2-0.2-0.2-0.4-0.2
			l-0.5,0l0,1.2l0.5,0l0,0.5l-1.6,0L49.1,79z M51,77.3c0.5,0,0.8-0.3,0.8-0.8c0-0.3-0.1-0.5-0.4-0.7c-0.1-0.1-0.3-0.1-0.5-0.1
			l-0.7,0l0,1.5L51,77.3z"/>
		<path class="st7" d="M53.1,79l0.5,0l0-3.2l-0.5,0l0-0.5l1.8,0c0.3,0,0.6,0,0.9,0.1c0.8,0.3,1.3,1,1.3,2c0,1-0.5,1.7-1.3,1.9
			c-0.3,0.1-0.5,0.1-0.9,0.1l-1.8,0L53.1,79z M54.9,79c0.3,0,0.5,0,0.7-0.1c0.6-0.2,0.9-0.7,0.9-1.5c0-0.8-0.3-1.3-0.9-1.5
			c-0.2-0.1-0.4-0.1-0.7-0.1l-0.6,0l0,3.2L54.9,79z"/>
		<path class="st7" d="M59.2,79.1l0.5,0l0-3.2l-0.5,0l0-0.5l1.6,0l0,0.5l-0.5,0l0,3.2l0.5,0l0,0.5l-1.6,0L59.2,79.1z"/>
		<path class="st7" d="M61.4,79.1l0.5,0l0-3.2l-0.5,0l0-0.5l1.8,0c0.3,0,0.6,0,0.9,0.1c0.8,0.3,1.3,1,1.3,2c0,1-0.5,1.7-1.3,1.9
			c-0.3,0.1-0.5,0.1-0.9,0.1l-1.8,0L61.4,79.1z M63.1,79.1c0.3,0,0.5,0,0.7-0.1c0.6-0.2,0.9-0.7,0.9-1.5c0-0.8-0.3-1.3-0.9-1.5
			C63.7,76,63.5,76,63.2,76l-0.6,0l0,3.2L63.1,79.1z"/>
	</g>
	<g>
		<path class="st7" d="M40.7,72.4l0.6,0l0-4l-0.6,0l0-0.6l3.7,0l0,1.2l-0.6,0l0-0.6l-1.7,0l0,1.6l1.8,0l0,0.6l-1.8,0l0,1.7l1.8,0
			l0-0.6l0.6,0l0,1.2l-3.8,0V72.4z"/>
		<path class="st7" d="M45.3,72.4l0.6,0l0-4l-0.6,0l0-0.6l1.4,0l2.5,3.7c0.1,0.1,0.2,0.4,0.2,0.4h0c0,0,0-0.3,0-0.4l0-3.1l-0.7,0
			l0-0.6l2,0l0,0.6l-0.6,0l0,4.6l-0.7,0l-2.5-3.7c-0.1-0.1-0.2-0.4-0.2-0.4h0c0,0,0,0.3,0,0.4l0,3.1l0.7,0V73l-2,0V72.4z"/>
		<path class="st7" d="M52.4,72.4l0.6,0l0-4l-1.2,0l0,0.8l-0.6,0l0-1.4l4.4,0l0,1.4l-0.6,0l0-0.8l-1.2,0l0,4l0.6,0v0.6l-2,0V72.4z"
			/>
		<path class="st7" d="M56.2,72.4l0.6,0l0-4l-0.6,0l0-0.6l3.7,0l0,1.2l-0.6,0l0-0.6l-1.7,0l0,1.6l1.8,0l0,0.6l-1.8,0l0,1.7l1.8,0
			l0-0.6l0.6,0l0,1.2l-3.8,0V72.4z"/>
		<path class="st7" d="M60.8,72.4l0.6,0l0-4l-0.6,0l0-0.6l2.2,0c0.4,0,0.7,0,0.9,0.1c0.5,0.2,0.9,0.6,0.9,1.3c0,0.7-0.4,1.3-1.1,1.4
			v0c0,0,0.1,0.1,0.2,0.2l0.7,1.3c0.1,0.1,0.2,0.2,0.4,0.2h0.2v0.6l-0.4,0c-0.4,0-0.5-0.1-0.7-0.4l-0.8-1.4
			c-0.1-0.2-0.2-0.3-0.5-0.3l-0.6,0l0,1.5l0.6,0v0.6l-2,0V72.4z M63.2,70.3c0.6,0,0.9-0.4,0.9-1c0-0.4-0.2-0.7-0.5-0.8
			c-0.2-0.1-0.4-0.1-0.6-0.1l-0.8,0l0,1.9L63.2,70.3z"/>
	</g>
	<g>
		<path class="st7" d="M180,78.4v0.3c0,0.3,0.4,0.5,0.8,0.5c0.5,0,0.8-0.2,0.8-0.6c0-0.5-0.5-0.6-1-0.8c-0.5-0.2-1.1-0.4-1.1-1.2
			c0-0.8,0.6-1.1,1.3-1.1c0.6,0,1.3,0.2,1.3,0.7v0.5h-0.5v-0.3c0-0.2-0.4-0.4-0.7-0.4c-0.4,0-0.7,0.2-0.7,0.6c0,0.4,0.4,0.6,0.9,0.8
			c0.6,0.2,1.2,0.5,1.2,1.2c0,0.8-0.6,1.2-1.4,1.2c-0.6,0-1.4-0.3-1.4-0.9v-0.4H180z"/>
		<path class="st7" d="M182.9,79.2h0.5V76h-0.5v-0.5h1.9c0.3,0,0.5,0,0.7,0.1c0.4,0.2,0.7,0.6,0.7,1.2c0,0.6-0.3,1-0.8,1.2
			c-0.2,0.1-0.4,0.1-0.6,0.1H184v1.1h0.5v0.5h-1.6V79.2z M184.7,77.6c0.2,0,0.3,0,0.5-0.1c0.3-0.1,0.4-0.4,0.4-0.7
			c0-0.3-0.1-0.6-0.4-0.7c-0.1-0.1-0.3-0.1-0.5-0.1H184v1.6H184.7z"/>
		<path class="st7" d="M188.8,75.5c1.2,0,2.1,0.9,2.1,2.1c0,1.2-0.9,2.2-2.1,2.2c-1.2,0-2.1-0.9-2.1-2.2
			C186.7,76.4,187.6,75.5,188.8,75.5z M188.8,79.2c0.8,0,1.5-0.7,1.5-1.6c0-0.9-0.7-1.6-1.5-1.6c-0.8,0-1.5,0.7-1.5,1.6
			C187.3,78.5,187.9,79.2,188.8,79.2z"/>
		<path class="st7" d="M191.5,79.2h0.5V76h-0.5v-0.5h1.1l2,3c0.1,0.1,0.1,0.3,0.1,0.3h0c0,0,0-0.2,0-0.3V76h-0.5v-0.5h1.6V76h-0.5
			v3.7h-0.6l-2-3c-0.1-0.1-0.1-0.3-0.1-0.3h0c0,0,0,0.2,0,0.3v2.5h0.5v0.5h-1.6V79.2z"/>
		<path class="st7" d="M196.9,78.4v0.3c0,0.3,0.4,0.5,0.8,0.5c0.5,0,0.8-0.2,0.8-0.6c0-0.5-0.5-0.6-1-0.8c-0.5-0.2-1.1-0.4-1.1-1.2
			c0-0.8,0.6-1.1,1.3-1.1c0.6,0,1.3,0.2,1.3,0.7v0.5h-0.5v-0.3c0-0.2-0.4-0.4-0.7-0.4c-0.4,0-0.7,0.2-0.7,0.6c0,0.4,0.4,0.6,0.9,0.8
			c0.6,0.2,1.2,0.5,1.2,1.2c0,0.8-0.6,1.2-1.4,1.2c-0.6,0-1.4-0.3-1.4-0.9v-0.4H196.9z"/>
		<path class="st7" d="M201.9,75.5c1.2,0,2.1,0.9,2.1,2.1c0,1.2-0.9,2.2-2.1,2.2c-1.2,0-2.1-0.9-2.1-2.2
			C199.7,76.4,200.7,75.5,201.9,75.5z M201.9,79.2c0.8,0,1.5-0.7,1.5-1.6c0-0.9-0.7-1.6-1.5-1.6c-0.8,0-1.5,0.7-1.5,1.6
			C200.3,78.5,201,79.2,201.9,79.2z"/>
		<path class="st7" d="M204.5,79.2h0.5V76h-0.5v-0.5h1.8c0.3,0,0.5,0,0.8,0.1c0.4,0.1,0.7,0.5,0.7,1.1c0,0.6-0.3,1-0.9,1.2v0
			c0,0,0.1,0.1,0.2,0.2l0.6,1c0.1,0.1,0.1,0.1,0.3,0.1h0.1v0.5h-0.4c-0.4,0-0.4-0.1-0.6-0.3l-0.6-1.1c-0.1-0.2-0.2-0.2-0.4-0.2h-0.5
			v1.2h0.5v0.5h-1.6V79.2z M206.5,77.5c0.5,0,0.8-0.3,0.8-0.8c0-0.3-0.1-0.5-0.4-0.7c-0.1-0.1-0.3-0.1-0.5-0.1h-0.7v1.5H206.5z"/>
	</g>
	<path class="st8" d="M14.8,148.7V12.6h224.4v136.1H14.8z M201.6,136c0.9-13.4,11.6-24.2,24.9-25.2c0-16.2-0.1-43.5-0.2-50.8
		c-21.7-1-24.8-18.3-25.1-31.8H52.6c-0.2,15.5-3.6,31.2-25,32.1v50.8c13.4,0.8,24.3,11.5,25.3,25h13.2v-8.5h122.1v8.5H201.6z"/>
	<path class="st6" d="M15.8,147.8V13.6h222.4v134.2H15.8z M202.5,137c0.4-13.6,11.4-24.7,25-25.3c0-17.1-0.1-47.1-0.2-52.7
		c-21.7-0.5-24.9-17-25.1-31.8H51.6c-0.1,16.5-3.4,31.6-25,32.1V112c13.7,0.4,24.8,11.4,25.3,25h15.1v-8.5h120.2v8.5H202.5z"/>
	<path class="st10" d="M16.8,14.6v132.2h220.5V14.6H16.8z M228.4,112.7c-13.8,0-25,11.2-25,25c0,0.1,0,0.1,0,0.2h-17.4v-8.5H67.9
		v8.5h-17c0-13.8-11.2-25-25-25c-0.1,0-0.2,0-0.3,0V58.4c19.8,0,24.3-12.3,24.9-26.9c0.1-1.6,8-4.8,8-4.8l138.2-0.4
		c0,0,6.5,4,6.6,5.9c1.1,15.5,7.2,25.9,24.8,25.9C228.3,58.1,228.4,112.7,228.4,112.7z"/>
	<path class="st7" d="M27,136.5c-1.3-1.3-2.2-2.6-2.8-3.8c-0.6-1.3-0.9-2.7-0.9-4.2c0-1.6,0.6-2.9,1.7-4.1c1.1-1.1,2.5-1.7,4.1-1.7
		c1.4,0,2.6,0.4,3.6,1.2c1-0.8,2.2-1.2,3.6-1.2c1.6,0,2.9,0.6,4.1,1.7c1.1,1.1,1.7,2.5,1.7,4.1c0,1.5-0.3,2.9-0.9,4.2
		c-0.6,1.2-1.5,2.5-2.8,3.9l-5.6,5.8L27,136.5z"/>
	<path class="st8" d="M27.7,135.8c-1.2-1.2-2.1-2.4-2.6-3.6c-0.5-1.2-0.8-2.4-0.8-3.8c0-1.3,0.5-2.4,1.4-3.4
		c0.9-0.9,2.1-1.4,3.4-1.4s2.4,0.5,3.4,1.4c0.1,0.1,0.1,0.1,0.2,0.2c0.1-0.1,0.1-0.1,0.2-0.2c0.9-0.9,2.1-1.4,3.4-1.4
		c1.3,0,2.4,0.5,3.4,1.4c0.9,0.9,1.4,2.1,1.4,3.4c0,1.3-0.3,2.6-0.8,3.8c-0.5,1.1-1.4,2.3-2.6,3.6l-4.9,5L27.7,135.8z"/>
	<path class="st6" d="M36.7,135l-4.1,4.2l-4.1-4.2c-1.1-1.1-1.9-2.2-2.3-3.2c-0.5-1-0.7-2.1-0.7-3.3c0-1,0.3-1.8,1-2.5s1.5-1,2.5-1
		s1.8,0.3,2.5,1s1,1.5,1,2.5c0-1,0.3-1.8,1-2.5s1.5-1,2.5-1c1,0,1.8,0.3,2.5,1c0.7,0.7,1,1.5,1,2.5c0,1.2-0.2,2.3-0.7,3.3
		C38.6,132.8,37.8,133.9,36.7,135z"/>
	<path class="st7" d="M215.7,136.5c-1.3-1.3-2.2-2.6-2.8-3.8c-0.6-1.3-0.9-2.7-0.9-4.2c0-1.6,0.6-2.9,1.7-4.1s2.5-1.7,4.1-1.7
		c1.4,0,2.6,0.4,3.6,1.2c1-0.8,2.2-1.2,3.6-1.2c1.6,0,2.9,0.6,4.1,1.7c1.1,1.1,1.7,2.5,1.7,4.1c0,1.5-0.3,2.9-0.9,4.2
		c-0.6,1.2-1.5,2.5-2.8,3.9l-5.6,5.8L215.7,136.5z"/>
	<path class="st8" d="M216.4,135.8c-1.2-1.2-2.1-2.4-2.6-3.6c-0.5-1.2-0.8-2.4-0.8-3.8c0-1.3,0.5-2.4,1.4-3.4
		c0.9-0.9,2.1-1.4,3.4-1.4s2.4,0.5,3.4,1.4c0.1,0.1,0.1,0.1,0.2,0.2c0.1-0.1,0.1-0.1,0.2-0.2c0.9-0.9,2.1-1.4,3.4-1.4
		c1.3,0,2.4,0.5,3.4,1.4c0.9,0.9,1.4,2.1,1.4,3.4c0,1.3-0.3,2.6-0.8,3.8c-0.5,1.1-1.4,2.3-2.6,3.6l-4.9,5L216.4,135.8z"/>
	<path class="st6" d="M225.5,135l-4.1,4.2l-4.1-4.2c-1.1-1.1-1.9-2.2-2.3-3.2c-0.5-1-0.7-2.1-0.7-3.3c0-1,0.3-1.8,1-2.5s1.5-1,2.5-1
		s1.8,0.3,2.5,1c0.7,0.7,1,1.5,1,2.5c0-1,0.3-1.8,1-2.5c0.7-0.7,1.5-1,2.5-1s1.8,0.3,2.5,1s1,1.5,1,2.5c0,1.2-0.2,2.3-0.7,3.3
		C227.4,132.8,226.6,133.9,225.5,135z"/>
	<g>
		<path class="st6" d="M80.7,138.2c0,2.1-1.3,4.2-4.2,4.2c-2.8,0-4.2-2.1-4.2-4.2c0-2.5,1.7-4.3,4.2-4.3
			C79.3,134,80.7,136.1,80.7,138.2z M76.6,135.1c-1.9,0-3,1.4-3,3.2c0,1.6,0.9,3.1,3,3.1c2.1,0,2.9-1.6,2.9-3.1
			C79.5,136.7,78.6,135.1,76.6,135.1z"/>
		<path class="st6" d="M81.7,142.3v-1.1h0.9v-5.9h-1v-1.1h1.9l4.8,5.9v-4.7h-1v-1.1h3.1v1.1h-0.9v7h-0.8l-4.9-5.9v4.8h1v1.1H81.7z"
			/>
		<path class="st6" d="M97.4,141.1l0-1.2h1.1v2.4h-6.9v-1.1h1v-5.9h-1v-1.1h6.7v2.3h-1.1l0-1.2h-3.4v2.3h3.5v1.1h-3.5v2.5H97.4z"/>
		<path class="st6" d="M109.7,134.9c0,0.6,0,1.1,0,1.8h-1.1l0-1.2c-0.5-0.2-1.2-0.4-1.7-0.4c-2,0-3,1.5-3,3.2c0,1.5,0.9,3,3.1,3
			c0.8,0,1.3-0.2,1.9-0.7v-1.5h-2.4v-1h3.5v3c-0.7,1-1.8,1.4-3,1.4c-3,0-4.3-2-4.3-4.2c0-2.4,1.5-4.3,4.3-4.3
			C107.9,134,108.8,134.2,109.7,134.9z"/>
		<path class="st6" d="M119.4,138.2c0,2.1-1.3,4.2-4.2,4.2c-2.8,0-4.2-2.1-4.2-4.2c0-2.5,1.7-4.3,4.2-4.3
			C118,134,119.4,136.1,119.4,138.2z M115.3,135.1c-1.9,0-3,1.4-3,3.2c0,1.6,0.9,3.1,3,3.1c2.1,0,2.9-1.6,2.9-3.1
			C118.2,136.7,117.3,135.1,115.3,135.1z"/>
		<path class="st6" d="M128.8,138.2c0,2.1-1.3,4.2-4.2,4.2c-2.8,0-4.2-2.1-4.2-4.2c0-2.5,1.7-4.3,4.2-4.3
			C127.5,134,128.8,136.1,128.8,138.2z M124.7,135.1c-1.9,0-3,1.4-3,3.2c0,1.6,0.9,3.1,3,3.1c2.1,0,2.9-1.6,2.9-3.1
			C127.6,136.7,126.7,135.1,124.7,135.1z"/>
		<path class="st6" d="M129.9,142.3v-1.1h1v-5.9h-1v-1.1h3.9c2.8,0,4.1,1.8,4.1,4s-1.2,4.2-4.1,4.2H129.9z M133.7,141.2
			c2,0,2.9-1.6,2.9-3.1c0-1.5-0.9-2.9-2.9-2.9h-1.7v5.9H133.7z"/>
		<path class="st6" d="M142.8,135.2h-1v-1.1h4.7c3.9,0,3.9,5.4,0,5.4H144v1.7h1v1.1h-3.1v-1.1h0.9V135.2z M146.5,138.4
			c2.2,0,2.2-3.2,0-3.2H144v3.2H146.5z"/>
		<path class="st6" d="M158.6,138.2c0,2.1-1.3,4.2-4.2,4.2c-2.8,0-4.2-2.1-4.2-4.2c0-2.5,1.7-4.3,4.2-4.3
			C157.2,134,158.6,136.1,158.6,138.2z M154.5,135.1c-1.9,0-3,1.4-3,3.2c0,1.6,0.9,3.1,3,3.1c2.1,0,2.9-1.6,2.9-3.1
			C157.4,136.7,156.5,135.1,154.5,135.1z"/>
		<path class="st6" d="M162.9,141.2v1.1h-3.3v-1.1h1v-5.9h-1v-1.1h3.2v1.1h-1v5.9H162.9z"/>
		<path class="st6" d="M164.1,142.3v-1.1h0.9v-5.9h-1v-1.1h1.9l4.8,5.9v-4.7h-1v-1.1h3.1v1.1h-0.9v7h-0.8l-4.9-5.9v4.8h1v1.1H164.1z
			"/>
		<path class="st6" d="M175.6,142.3v-1.1h1v-6h-1.7l0,1.3h-1.1v-2.3h6.9v2.3h-1.1l-0.1-1.3h-1.7v6h1v1.1H175.6z"/>
	</g>
	<path class="st7" d="M23.7,45.5v-5.6h2c0.9,0,1.5-0.1,1.8-0.1V30h-3.9l-0.4-5.5l2.1,0c2,0,3.3-0.8,4.1-2.4l0.6-1.3l6.2,0.7
		l-0.2,1.9c-0.1,0.5-0.1,1-0.1,1.3c0,0.3,0,0.6,0,0.9c0,0,0,11.2,0,14.1c0.3,0,0.7,0.1,1.2,0.1h2v5.6H23.7z"/>
	<path class="st8" d="M24.6,44.5v-3.7h1c2,0,2.6-0.3,2.8-0.4V29h-3.9l-0.3-3.6l1,0c2.4-0.1,4.1-1,5-3l0.3-0.6l4.6,0.5l-0.1,1
		c-0.1,0.5-0.1,1-0.1,1.4c0,0.4,0,0.7,0,1c0,0,0,14.9,0,14.9c0,0,0.4,0.3,2.2,0.3h1v3.7H24.6z"/>
	<path class="st6" d="M34,23.1c-0.1,0.5-0.1,1-0.1,1.4c0,0.4,0,0.7,0,1.1v14.9c0,0.9,1.1,1.3,3.2,1.3v1.7H25.6v-1.7
		c2.5,0,3.7-0.4,3.7-1.3V28h-4l-0.1-1.6c2.8-0.1,4.8-1.3,5.8-3.6L34,23.1z"/>
	<path class="st7" d="M215.7,45.8v-5.6h2c0.9,0,1.5-0.1,1.8-0.1v-9.7h-3.9l-0.4-5.5l2.1,0c2,0,3.3-0.8,4.1-2.4l0.6-1.3l6.2,0.7
		l-0.2,1.9c-0.1,0.5-0.1,1-0.1,1.3c0,0.3,0,0.6,0,0.9c0,0,0,11.2,0,14.1c0.3,0,0.7,0.1,1.2,0.1h2v5.6H215.7z"/>
	<path class="st8" d="M216.7,44.8v-3.7h1c2,0,2.6-0.3,2.8-0.4V29.3h-3.9l-0.3-3.6l1,0c2.4-0.1,4.1-1,5-3l0.3-0.6l4.6,0.5l-0.1,1
		c-0.1,0.5-0.1,1-0.1,1.4c0,0.4,0,0.7,0,1c0,0,0,14.9,0,14.9c0,0,0.4,0.3,2.2,0.3h1v3.7H216.7z"/>
	<path class="st6" d="M226,23.5c-0.1,0.5-0.1,1-0.1,1.4s0,0.7,0,1.1v14.9c0,0.9,1.1,1.3,3.2,1.3v1.7h-11.3v-1.7
		c2.5,0,3.7-0.4,3.7-1.3V28.4h-4l-0.1-1.6c2.8-0.1,4.8-1.3,5.8-3.6L226,23.5z"/>
	<g>
		<path class="st7" d="M86.5,45.6c1,0,2.1,0.4,2.1,1.1v0.7h-0.7v-0.4c0-0.5-0.7-0.7-1.4-0.7c-1.3,0-2.1,0.9-2.1,2.1
			c0,1.3,0.8,2.2,2.1,2.2c0.5,0,1.5-0.1,1.5-0.7v-0.7H87v-0.6h1.8v1.5c0,0.9-1.4,1.2-2.2,1.2c-1.7,0-2.9-1.2-2.9-2.9
			S84.8,45.6,86.5,45.6z"/>
		<path class="st7" d="M89.7,50.6h0.7v-4.3h-0.7v-0.6h4V47H93v-0.6h-1.8v1.8h2v0.6h-2v1.8h2v-0.7h0.7v1.3h-4.1V50.6z"/>
		<path class="st7" d="M95.7,50.6h0.7v-4.3h-1.3v0.9h-0.7v-1.5h4.7v1.5h-0.7v-0.9h-1.3v4.3h0.7v0.6h-2.2V50.6z"/>
		<path class="st7" d="M104.5,45.6c1.6,0,2.8,1.2,2.8,2.8c0,1.6-1.2,2.9-2.8,2.9c-1.6,0-2.8-1.3-2.8-2.9
			C101.7,46.8,102.9,45.6,104.5,45.6z M104.5,50.6c1.1,0,2-1,2-2.2c0-1.2-0.9-2.1-2-2.1c-1.1,0-2,0.9-2,2.1
			C102.5,49.6,103.4,50.6,104.5,50.6z"/>
		<path class="st7" d="M108.1,50.6h0.7v-4.3h-0.7v-0.6h1.5l2.7,4c0.1,0.2,0.2,0.4,0.2,0.4h0c0,0,0-0.3,0-0.4v-3.3h-0.7v-0.6h2.2v0.6
			h-0.7v4.9h-0.8l-2.7-4c-0.1-0.2-0.2-0.4-0.2-0.4h0c0,0,0,0.3,0,0.4v3.3h0.7v0.6h-2.2V50.6z"/>
		<path class="st7" d="M114.7,50.6h0.7v-4.3h-0.7v-0.6h4V47H118v-0.6h-1.8v1.8h2v0.6h-2v1.8h2v-0.7h0.7v1.3h-4.1V50.6z"/>
	</g>
	<g>
		<path class="st7" d="M136.5,45.6c1,0,2.1,0.4,2.1,1.1v0.7h-0.7v-0.4c0-0.5-0.7-0.7-1.4-0.7c-1.3,0-2.1,0.9-2.1,2.1
			c0,1.3,0.8,2.2,2.1,2.2c0.5,0,1.5-0.1,1.5-0.7v-0.7h-1.1v-0.6h1.8v1.5c0,0.9-1.4,1.2-2.2,1.2c-1.7,0-2.9-1.2-2.9-2.9
			S134.8,45.6,136.5,45.6z"/>
		<path class="st7" d="M139.6,50.6h0.7v-4.3h-0.7v-0.6h2.2v0.6h-0.7v4.3h0.7v0.6h-2.2V50.6z"/>
		<path class="st7" d="M142.8,46.3h-0.5v-0.6h2v0.6h-0.6l1.2,3.6c0.1,0.2,0.1,0.4,0.1,0.4h0c0,0,0-0.2,0.1-0.4l1.2-3.6h-0.6v-0.6h2
			v0.6h-0.5l-1.7,4.9h-0.8L142.8,46.3z"/>
		<path class="st7" d="M148.2,50.6h0.7v-4.3h-0.7v-0.6h4V47h-0.7v-0.6h-1.8v1.8h2v0.6h-2v1.8h2v-0.7h0.7v1.3h-4.1V50.6z"/>
		<path class="st7" d="M157.9,45.6c1.6,0,2.8,1.2,2.8,2.8c0,1.6-1.2,2.9-2.8,2.9c-1.6,0-2.8-1.3-2.8-2.9
			C155,46.8,156.3,45.6,157.9,45.6z M157.9,50.6c1.1,0,2-1,2-2.2c0-1.2-0.9-2.1-2-2.1c-1.1,0-2,0.9-2,2.1
			C155.8,49.6,156.7,50.6,157.9,50.6z"/>
		<path class="st7" d="M161.4,50.6h0.7v-4.3h-0.7v-0.6h1.5l2.7,4c0.1,0.2,0.2,0.4,0.2,0.4h0c0,0,0-0.3,0-0.4v-3.3h-0.7v-0.6h2.2v0.6
			h-0.7v4.9h-0.8l-2.7-4c-0.1-0.2-0.2-0.4-0.2-0.4h0c0,0,0,0.3,0,0.4v3.3h0.7v0.6h-2.2V50.6z"/>
		<path class="st7" d="M168,50.6h0.7v-4.3H168v-0.6h4V47h-0.7v-0.6h-1.8v1.8h2v0.6h-2v1.8h2v-0.7h0.7v1.3H168V50.6z"/>
	</g>
	<path class="st7" d="M128,47c-0.5-0.5-1.4-0.5-2,0c0,0,0,0,0,0l0,0l0,0c0,0,0,0,0,0c-0.5-0.5-1.4-0.5-2,0c-0.5,0.5-0.5,1.4,0,2
		c0,0,2,2,2,2l2-2c0,0,0,0,0,0C128.6,48.4,128.6,47.5,128,47z"/>
	<g>
		<line class="st1" x1="194.3" y1="24" x2="206.1" y2="44.6"/>
		<line class="st1" x1="192.6" y1="25" x2="204.4" y2="45.6"/>
		<line class="st1" x1="190.9" y1="26" x2="202.7" y2="46.6"/>
		<line class="st1" x1="188" y1="24.9" x2="199.8" y2="45.5"/>
		<line class="st1" x1="186.2" y1="25.9" x2="198.1" y2="46.4"/>
		<path class="st1" d="M199.9,26.1V22c0,0-18.1-4.4-73-4.4c-55.8,0-72.8,4.5-72.8,4.5l0.1,4.4c-4.6,0.9-9.2,1.5-9.2,1.5l3.7,8.9
			l-2.4,12c0,0,9.1-2.3,21.3-3.4v-5c11.6-1.2,31.5-3,59.4-3c27.7,0,47.9,1.9,59.8,3.1v4.8c12.2,1.1,21.9,3.9,21.9,3.9l-4.5-12.5
			l4.5-9C208.6,27.9,204.5,26.6,199.9,26.1z"/>
	</g>
	<g>
		<defs>
			<path id="SVGID_11_" d="M48.5,30l3,6.6l-2,8.7c0,0,3.9-1.2,15.7-2.2V27.8C53,28.9,48.5,30,48.5,30z"/>
		</defs>
		<clipPath id="SVGID_2_">
			<use xlink:href="#SVGID_11_"  style="overflow:visible;"/>
		</clipPath>
		<path class="st13" d="M48.3,30l0.1,15.7c0,0,5-1.5,16.8-2.6V27.8C53,28.9,48.3,30,48.3,30z"/>
		<line class="st14" x1="53.8" y1="22.3" x2="42.4" y2="42"/>
		<line class="st14" x1="55.4" y1="23.2" x2="44" y2="43"/>
		<line class="st14" x1="57.1" y1="24.2" x2="45.7" y2="43.9"/>
		<line class="st14" x1="58.7" y1="25.1" x2="47.3" y2="44.9"/>
		<line class="st14" x1="60.3" y1="26.1" x2="49" y2="45.9"/>
		<line class="st14" x1="62" y1="27.1" x2="50.6" y2="46.9"/>
		<line class="st14" x1="63.6" y1="28" x2="52.3" y2="47.8"/>
		<line class="st14" x1="65.3" y1="29" x2="53.9" y2="48.8"/>
		<line class="st14" x1="68.1" y1="27.9" x2="56.7" y2="47.7"/>
		<line class="st14" x1="69.7" y1="28.9" x2="58.4" y2="48.6"/>
		<line class="st14" x1="71.4" y1="29.8" x2="60" y2="49.6"/>
		<line class="st14" x1="73" y1="30.8" x2="61.7" y2="50.5"/>
	</g>
	<polygon class="st7" points="65,43.1 56.3,39.8 65.1,37.8 	"/>
	<g>
		<defs>
			<path id="SVGID_13_" d="M205.2,29.3l-3.5,7.1l3.1,9.3c0,0-3.3-1.2-15.6-2.3V27.4C201.7,28.6,205.2,29.3,205.2,29.3z"/>
		</defs>
		<use xlink:href="#SVGID_13_"  style="overflow:visible;fill:#FFFFFF;"/>
		<clipPath id="SVGID_4_">
			<use xlink:href="#SVGID_13_"  style="overflow:visible;"/>
		</clipPath>
		<path class="st15" d="M5.5,142V-5.4h243V142H5.5z M207.7,128.2c0.9-14.5,12.5-26.2,27-27.3v-55C220.2,45,208.5,26,207.4,11.5H46.3
			C45.4,26,33.8,45.1,19.3,46.2v55c14.5,0.9,26.3,12.5,27.4,27h14.3v-9.2h132.2v9.2H207.7z"/>
		<path class="st16" d="M6.6,140.9V-4.4h240.9v145.3H6.6z M208.7,129.3c0.4-14.8,12.3-26.8,27-27.3v-57
			C221,44.5,209,25.2,208.4,10.5H45.3C44.9,25.3,33,44.6,18.2,45.2v57c14.8,0.4,26.8,12.3,27.4,27.1h16.3v-9.2h130.1v9.2H208.7z"/>
		<path class="st15" d="M206.4,29.5L206.3,46c0,0-5-1.5-17.3-2.6V27.4C201.7,28.6,206.4,29.5,206.4,29.5z"/>
		<line class="st17" x1="183" y1="37.8" x2="199" y2="20.3"/>
		<line class="st17" x1="184.4" y1="39.1" x2="200.4" y2="21.6"/>
		<line class="st17" x1="185.9" y1="40.5" x2="201.9" y2="23"/>
		<line class="st17" x1="187.3" y1="41.8" x2="203.3" y2="24.3"/>
		<line class="st17" x1="188.9" y1="43.1" x2="204.9" y2="25.6"/>
		<line class="st17" x1="190.3" y1="44.4" x2="206.3" y2="26.9"/>
		<line class="st17" x1="191.8" y1="45.8" x2="207.8" y2="28.2"/>
		<line class="st17" x1="193.2" y1="47.1" x2="209.3" y2="29.6"/>
		<line class="st17" x1="193.1" y1="50.2" x2="209.1" y2="32.7"/>
		<line class="st17" x1="194.5" y1="51.6" x2="210.6" y2="34.1"/>
		<line class="st17" x1="196" y1="52.9" x2="212" y2="35.4"/>
		<line class="st17" x1="197.5" y1="54.2" x2="213.5" y2="36.7"/>
	</g>
	<polygon class="st7" points="189,43.3 197.9,39.8 189.1,37.8 	"/>
	<path class="st12" d="M197.5,39.8c0,0-21-4.2-70.8-4.2c-51,0-70.4,4.2-70.4,4.2V23.9c0,0,17.3-4.2,70.5-4.2
		c52.5,0,70.7,4.2,70.7,4.2V39.8z"/>
	<polygon class="st6" points="61.5,29.1 60.1,29.3 59.8,27.2 64.7,26.5 65.1,28.6 63.7,28.8 64.5,34.8 62.3,35.1 	"/>
	<polygon class="st6" points="66.7,26.3 68.9,26 69.3,29 70.5,28.9 70.2,25.9 72.4,25.7 73.3,33.8 71.1,34 70.8,31 69.5,31.1 
		69.8,34.1 67.6,34.4 	"/>
	<polygon class="st6" points="74.8,25.5 79.1,25.1 79.3,27.1 77.2,27.3 77.2,28.3 79.1,28.1 79.2,30.1 77.4,30.3 77.5,31.4 
		79.6,31.2 79.8,33.2 75.4,33.6 	"/>
	<path class="st6" d="M87.8,32.8c-2.5,0-4-1.5-4.1-3.9c-0.1-1.3,0.3-2.4,1.1-3.2c0.7-0.7,1.7-1.1,2.9-1.2c0.1,0,0.2,0,0.3,0
		c1,0,1.8,0.3,2.6,0.9l0.3,0.3l-1.1,1.7L89.4,27c-0.5-0.3-0.9-0.5-1.4-0.5l-0.2,0c-0.7,0-1.9,0.4-1.8,2.2c0.1,1.6,1.1,2,1.9,2l0.2,0
		c0.3,0,0.5-0.1,0.7-0.1l0-0.8l-1.4,0.1l-0.1-2l3.7-0.2l0.2,4.1l-0.2,0.2c-0.7,0.5-1.7,0.8-2.7,0.9C88,32.8,87.9,32.8,87.8,32.8z"/>
	<path class="st6" d="M96.7,32.4c-2.5,0-4.1-1.6-4.2-4c-0.1-2.5,1.6-4.2,4.1-4.3l0.2,0c2.5,0,4.1,1.6,4.2,4c0.1,2.5-1.6,4.2-4.1,4.3
		L96.7,32.4z M96.7,26.1c-1.2,0-1.9,0.9-1.9,2.2c0,1.2,0.8,2,2,2c1.3,0,2-0.9,2-2.2C98.7,26.9,98,26.1,96.7,26.1L96.7,26.1z"/>
	<path class="st6" d="M106.8,32.1c-2.5,0-4.2-1.6-4.2-4.1c0-1.2,0.3-2.2,1.1-3c0.8-0.8,1.8-1.2,3.1-1.3l0.1,0c2.5,0,4.2,1.6,4.2,4.1
		c0,1.2-0.3,2.2-1.1,3c-0.8,0.8-1.8,1.2-3.1,1.3L106.8,32.1z M106.8,25.8c-1.2,0-2,0.9-1.9,2.1c0,1.2,0.8,2,2,2
		c0.6,0,1.1-0.2,1.5-0.6c0.3-0.4,0.5-0.9,0.5-1.5C108.8,26.6,108,25.8,106.8,25.8l0.1-0.5L106.8,25.8z"/>
	<path class="st6" d="M114.9,31.9c-0.5,0-0.9,0-1.4-0.1l-0.4-0.1l-0.1-8l0.4-0.1c0.5-0.1,1.1-0.1,1.6-0.1h0c2.6,0,4,1.5,4,4.1
		c0,1.2-0.3,2.2-0.8,2.9c-0.7,0.9-1.7,1.3-3.1,1.3L114.9,31.9z M115.2,29.9c1.2,0,1.4-1.2,1.4-2.2c0-1-0.3-2.1-1.5-2.1v-0.5l0,0.5
		c0,0,0,0,0,0L115.2,29.9z"/>
	<path class="st6" d="M123.4,23.8l0.4-0.1c0.5-0.1,1.1-0.2,1.7-0.2c2,0,3.1,1,3.1,2.9c0,1.8-1,2.8-2.9,2.8l0,2.6l-2.2,0L123.4,23.8z
		 M125.7,27.2c0.2,0,0.3-0.1,0.4-0.2c0.2-0.2,0.2-0.4,0.2-0.6c0-0.6-0.2-0.8-0.6-0.8L125.7,27.2z"/>
	<path class="st6" d="M134.2,31.9c-2.6,0-4.3-1.7-4.3-4.2c0-2.5,1.7-4.1,4.3-4.1c1.3,0,2.4,0.4,3.2,1.2c0.7,0.8,1.1,1.8,1.1,3
		C138.5,30.2,136.7,31.9,134.2,31.9L134.2,31.9z M134.2,25.6c-1.2,0-2,0.8-2,2.1c0,0.6,0.2,1.1,0.5,1.5c0.4,0.4,0.8,0.6,1.4,0.6
		c0,0,0,0,0,0c1.2,0,2-0.8,2-2.1c0-0.6-0.2-1.1-0.5-1.5C135.3,25.8,134.8,25.6,134.2,25.6v-0.5V25.6z"/>
	
		<rect x="137.4" y="26.7" transform="matrix(1.744874e-02 -0.9998 0.9998 1.744874e-02 111.1941 168.7521)" class="st6" width="8.1" height="2.2"/>
	<polygon class="st6" points="147,28.4 146.9,32 144.7,31.9 144.9,23 149,27.5 149.1,23.9 151.4,24 151.1,32.9 	"/>
	<polygon class="st6" points="154.3,32.2 154.5,26.2 153.1,26.1 153.2,24 158.2,24.2 158.1,26.3 156.7,26.3 156.5,32.3 	"/>
	<path class="st6" d="M166.2,32.9c-0.1,0-0.2,0-0.3,0c-2.6-0.1-4.2-1.8-4-4.4c0.1-2.4,1.7-3.9,4.1-3.9c0.1,0,0.2,0,0.3,0
		c1.2,0.1,2,0.4,2.8,1.2l0.3,0.3l-1.2,1.5l-0.4-0.3c-0.5-0.4-1-0.6-1.5-0.6l-0.2,0c-0.8,0-1.8,0.3-1.9,2c-0.1,1.8,1.1,2.2,1.9,2.2
		c0.1,0,0.2,0,0.2,0c0.2,0,0.3,0,0.5,0l0-0.8l-1.4-0.1l0.1-2l3.7,0.2l-0.2,4.1l-0.2,0.1C168,32.6,167.1,32.9,166.2,32.9z"/>
	<path class="st6" d="M174.1,33.3l-0.3-1.1l-1.4-0.1l-0.4,1l-2.3-0.2l4-8.9l2.6,9.4L174.1,33.3z M173.3,30.2l0-0.1L173.3,30.2
		L173.3,30.2z"/>
	<polygon class="st6" points="180.1,30.8 179.1,33.7 176.9,33.5 180,24.6 182.1,30 185.3,25.2 186.5,34.5 184.3,34.3 183.9,31.2 
		181.6,34.7 	"/>
	<polygon class="st6" points="187.9,34.7 189.1,26.6 193.4,27.3 193.1,29.2 191,28.9 190.9,30 192.7,30.2 192.4,32.2 190.6,31.9 
		190.4,33 192.5,33.3 192.2,35.3 	"/>
	<g>
		<g>
			<path class="st7" d="M62.7,34.5l-0.9-6l-1.4,0.2l-0.2-1.1l4-0.6l0.2,1.1l-1.4,0.2l0.9,6L62.7,34.5z"/>
			<path class="st7" d="M68,33.8l-0.8-7.1l1.2-0.1l0.3,3l2.3-0.2l-0.3-3l1.2-0.1l0.8,7.1l-1.2,0.1l-0.3-3l-2.3,0.2l0.3,3L68,33.8z"
				/>
			<path class="st7" d="M75.3,25.9l3.4-0.3l0.1,1l-2.1,0.2l0.2,2l1.8-0.2l0.1,1l-1.8,0.2l0.2,2.1l2.1-0.2l0.1,1L75.9,33L75.3,25.9z"
				/>
			<path class="st7" d="M88.1,31.2c0.6,0,0.8-0.1,1.2-0.3l-0.1-1.7l-1.4,0.1l-0.1-1l2.7-0.2l0.2,3.3c-0.6,0.4-1.4,0.7-2.5,0.8
				c-2.1,0.1-3.8-0.9-4-3.5c-0.1-2.5,1.4-3.8,3.5-3.9c1-0.1,1.8,0.1,2.6,0.8l-0.6,0.9c-0.6-0.4-1.2-0.6-1.9-0.5
				c-1.3,0.1-2.4,0.9-2.3,2.7C85.6,30.5,86.7,31.3,88.1,31.2z"/>
			<path class="st7" d="M96.7,24.5c2.4-0.1,3.9,1.4,3.9,3.5s-1.3,3.7-3.7,3.8s-3.9-1.4-3.9-3.5C92.9,26.2,94.3,24.6,96.7,24.5z
				 M96.9,30.8c1.5-0.1,2.4-1.2,2.4-2.7c-0.1-1.5-1.1-2.5-2.6-2.5c-1.5,0.1-2.4,1.2-2.4,2.7C94.4,29.8,95.4,30.8,96.9,30.8z"/>
			<path class="st7" d="M106.8,24.2c2.4-0.1,3.8,1.5,3.9,3.6c0,2.1-1.3,3.7-3.7,3.8c-2.4,0.1-3.8-1.5-3.9-3.6
				C103,25.8,104.3,24.3,106.8,24.2z M106.9,30.5c1.5,0,2.4-1.1,2.4-2.6c0-1.5-1-2.6-2.5-2.5c-1.5,0-2.4,1.1-2.4,2.6
				C104.4,29.5,105.4,30.5,106.9,30.5z"/>
			<path class="st7" d="M113.5,31.3l-0.1-7.1c0.5-0.1,1.1-0.1,1.5-0.1c2.7,0,3.5,1.7,3.5,3.6c0,2-0.8,3.7-3.5,3.7
				C114.5,31.4,114,31.4,113.5,31.3z M114.7,30.4c0.2,0,0.3,0,0.5,0c1.3,0,1.9-1.1,1.9-2.7c0-1.6-0.7-2.6-2-2.6c-0.1,0-0.4,0-0.5,0
				L114.7,30.4z"/>
			<path class="st7" d="M128.1,26.4c0,1.3-0.6,2.3-2.5,2.3c-0.2,0-0.3,0-0.4,0l0,2.6l-1.2,0l0-7.1c0.5-0.1,1-0.2,1.5-0.2
				C127.5,24,128.1,25.1,128.1,26.4z M125.2,27.6c0.2,0,0.3,0,0.4,0c0.9,0,1.2-0.6,1.2-1.3c0-0.7-0.3-1.3-1.2-1.3
				c-0.1,0-0.2,0-0.4,0L125.2,27.6z"/>
			<path class="st7" d="M134.2,24c2.4,0,3.8,1.6,3.8,3.7c0,2.1-1.4,3.7-3.8,3.7c-2.4,0-3.8-1.6-3.8-3.7
				C130.4,25.5,131.8,24,134.2,24z M134.2,30.3c1.5,0,2.5-1.1,2.5-2.6c0-1.5-1-2.6-2.4-2.6c-1.5,0-2.5,1.1-2.5,2.6
				C131.7,29.2,132.7,30.3,134.2,30.3z"/>
			<path class="st7" d="M140.8,31.4l0.1-7.2l1.2,0l-0.1,7.2L140.8,31.4z"/>
			<path class="st7" d="M146.6,27.2l-0.1,4.3l-1.2,0l0.2-7.3l4.1,4.5l0.1-4.3l1.2,0l-0.2,7.3L146.6,27.2z"/>
			<path class="st7" d="M154.8,31.7l0.2-6l-1.4-0.1l0-1.1l4.1,0.2l0,1.1l-1.4-0.1l-0.2,6L154.8,31.7z"/>
			<path class="st7" d="M166,31.3c0.6,0,0.8,0,1.2-0.1l0.1-1.7l-1.4-0.1l0.1-1l2.7,0.2l-0.2,3.3c-0.6,0.3-1.5,0.6-2.6,0.5
				c-2.1-0.1-3.7-1.3-3.5-3.9c0.1-2.5,1.9-3.6,3.9-3.5c1,0.1,1.8,0.3,2.5,1.1l-0.7,0.8c-0.5-0.5-1.1-0.7-1.8-0.8
				c-1.3-0.1-2.5,0.6-2.6,2.4C163.5,30.3,164.6,31.2,166,31.3z"/>
			<path class="st7" d="M174.2,31.8l-2.1-0.2l-0.4,1l-1.2-0.1l3.2-7.1l2.1,7.4l-1.2-0.1L174.2,31.8z M174,30.7l-0.5-2.3l-0.9,2.2
				L174,30.7z"/>
			<path class="st7" d="M185,26.5l0.9,7.4l-1.2-0.1l-0.5-4.1l-2.5,3.9l-1.6-4.3l-1.3,3.9l-1.2-0.1L180,26l2,5L185,26.5z"/>
			<path class="st7" d="M189.5,27.2l3.3,0.5l-0.1,1l-2.1-0.3l-0.3,2l1.8,0.3l-0.1,1l-1.8-0.3l-0.3,2.1l2.1,0.3l-0.1,1l-3.3-0.5
				L189.5,27.2z"/>
		</g>
	</g>
	<polyline class="st29" points="188.3,43.4 197.9,39.5 197.9,23.1 	"/>
	<polyline class="st29" points="65.5,42.8 55.9,39.5 55.9,23.1 	"/>
	<g>
		<g>
			<path class="st7" d="M162.3,81.9l-0.4-3.2l-11.7,0.6l8.6-7.9l-2-2.5c-1.2-1.6-2.6-3-4.2-4.2l-2.5-2L139,75.3l-0.4-1.2
				c-3.8-10.4-13.7-17.4-24.8-17.4c-14.5,0-26.4,11.8-26.4,26.4c0,7.1,2.8,13.8,7.9,18.8l0,0c2.1,2.2,5.1,3.9,5.2,4
				c1.6,1,3.4,1.8,5.4,2.4l0.2,0.1c0.6,0.2,1.3,0.4,2,0.5c0.3,0.1,0.6,0.1,0.9,0.2c0.6,0.1,1.2,0.2,1.9,0.3l0.4,0
				c1.1,0.1,2,0.1,2.4,0.1h0h0c0,0,0.4,0,0.4,0c0.7,0,1.4,0,2.2-0.1c0.2,0,0.9-0.1,0.9-0.1c0.5-0.1,1-0.1,1.5-0.2
				c0.2,0,0.9-0.2,0.9-0.2c0.5-0.1,0.9-0.2,1.4-0.3c0.3-0.1,0.5-0.2,0.8-0.2l0.2-0.1c0.4-0.1,0.9-0.3,1.3-0.5
				c0.3-0.1,0.6-0.2,0.9-0.4c0.4-0.2,0.9-0.4,1.3-0.6c0.2-0.1,0.4-0.2,0.6-0.3l0,3h14V95.5l10.4,11.4l2.5-1.9c1.6-1.2,3-2.6,4.2-4.2
				l2-2.5l-8.7-7.8l11.6,0.5l0.4-3.1C162.6,85.8,162.6,83.8,162.3,81.9z M129.3,81.4h-14.3v12.1c-0.4,0-0.9,0.1-1.3,0.1
				c-2.8,0-5.4-1.1-7.4-3.1s-3.1-4.7-3.1-7.5c0-5.8,4.8-10.6,10.6-10.6c3.5,0,6.8,1.8,8.8,4.7l1,1.5h7.9
				C130.6,79.4,129.9,80.3,129.3,81.4z"/>
			<path class="st6" d="M160.6,82.1l-0.2-1.6l-14.9,0.8l11-10.1l-1-1.2c-1.1-1.4-2.4-2.7-3.9-3.9l-1.3-1l-11.2,12.5
				c2.9,1.1,5,3.9,5,7.2c0,3.3-2.1,6.1-5.1,7.2l0,0l11.4,12.5l1.3-1c1.4-1.1,2.8-2.4,3.9-3.9l1-1.3l-11.1-9.9l14.9,0.7l0.2-1.6
				C160.9,85.7,160.9,83.9,160.6,82.1z"/>
			<path class="st6" d="M136.5,78.6c-2.9,0-5.2,1.9-6,4.6H129h-12.2v10.6h4c-0.1,0.1-0.2,0.2-0.3,0.3c-1.4,0.5-3.6,1.3-6.7,1.3
				c-6.8,0-12.3-5.5-12.3-12.3c0-6.8,5.5-12.3,12.3-12.3c4.1,0,7.9,2.1,10.2,5.5l0.5,0.8h13.3l-0.8-2.3
				c-3.5-9.8-12.8-16.3-23.2-16.3c-13.6,0-24.7,11.1-24.7,24.7c0,6.7,2.7,13,7.4,17.6c0,0,0,0-0.1,0c2,2.1,4.8,3.7,4.8,3.7
				c1.5,0.9,3.2,1.7,5,2.2l0.2,0.1c0.6,0.2,1.2,0.3,1.9,0.5c0.3,0.1,0.6,0.1,0.9,0.2c0.6,0.1,1.1,0.2,1.8,0.3l0.3,0
				c1.1,0.1,1.9,0.1,2.2,0.1c0,0,0.3,0,0.4,0c0.7,0,1.4,0,2-0.1c0.2,0,0.8-0.1,0.8-0.1c0.5-0.1,0.9-0.1,1.4-0.2
				c0.2,0,0.9-0.2,0.9-0.2c0.4-0.1,0.9-0.2,1.3-0.3c0.2-0.1,0.5-0.1,0.7-0.2l0.2-0.1c0.4-0.1,0.8-0.3,1.2-0.4
				c0.3-0.1,0.6-0.2,0.8-0.3c0.4-0.2,0.8-0.4,1.2-0.5c0.3-0.1,0.5-0.3,0.8-0.4c0.4-0.2,0.8-0.4,1.2-0.7l0.2-0.1
				c0.2-0.1,0.3-0.2,0.5-0.3c0.2-0.1,0.3-0.2,0.5-0.3l0,4.3h10.6V92.3v-1.5c2.6-0.8,4.5-3.1,4.5-6C142.7,81.4,139.9,78.6,136.5,78.6
				z"/>
		</g>
		<circle class="st6" cx="136.5" cy="84.8" r="4.5"/>
	</g>
	<g>
		<g>
			<g>
				<path class="st2" d="M114.1,97c-7.7,0-14-6.3-14-14s6.3-14,14-14c4.8,0,9.1,2.5,11.6,6.2h9.9c-3.2-8.8-11.6-15.1-21.5-15.1
					c-12.6,0-22.9,10.3-22.9,22.9c0,12.6,10.3,22.9,22.9,22.9c10.7,0,19.8-7.4,22.2-17.4H127C124.8,93.4,119.9,97,114.1,97"/>
			</g>
		</g>
		<path class="st3" d="M118.8,84.9V92l6,0c-5.4,7.9-17.1,10.9-22.2,10.8c5.4,3.3,11.5,3.1,11.5,3.1c6,0,11.4-2.3,15.5-6.1l0,6.1h7.1
			v-21H118.8z"/>
		<circle class="st4" cx="136.7" cy="84.9" r="4.5"/>
		<path class="st4" d="M144.5,80.2c-0.8-1-1.7-1.9-2.6-2.6l9-10c1.3,1,2.5,2.2,3.6,3.6L144.5,80.2z"/>
		<path class="st4" d="M141.8,92.3c1-0.8,1.9-1.7,2.6-2.6l10,9c-1,1.3-2.2,2.5-3.6,3.6L141.8,92.3z"/>
		<path class="st4" d="M145.6,86.8c0.2-1.2,0.1-2.5,0-3.7l13.4-0.7c0.2,1.7,0.2,3.4,0,5L145.6,86.8z"/>
		<circle class="st4" cx="136.7" cy="84.9" r="4.5"/>
	</g>
</g>
<g id="Layer_2">
	<path class="st45" d="M239.4,4.5H13.1c-5,0-9.1,4.1-9.1,9.1v135.3c0,5,4.1,9.1,9.1,9.1h226.3c5,0,9.1-4.1,9.1-9.1V13.6
		C248.5,8.6,244.4,4.5,239.4,4.5z M239.8,148H14.5V13.5h225.2V148z"/>
</g>
</svg>
